#!OML:ASF H:\BabyWalks\Project 1\Capture day 1\Session 1\baby.ASF
:FULLY-SPECIFIED
:DEGREES
962
root -17.5802 17.8859 -0.753229 -387.695 84.9469 -403.708
lowerback 19.5052 -1.73974 -1.30019
upperback 0.438324 -2.49169 0.217681
thorax -10.4156 -1.07264 1.6711
lowerneck 1.89696 1.46568 4.45086
upperneck -27.5049 3.8077 0.931366
head -8.85006 1.68239 -0.815761
rclavicle -4.8901e-014 2.38542e-015
rhumerus -54.2679 7.33124 -79.7205
rradius 43.6684
rwrist 3.21981
rhand -8.00981 -14.578
rfingers 7.12502
rthumb 17.8994 -43.7743
lclavicle -4.8901e-014 2.38542e-015
lhumerus -41.9511 -19.6716 76.9281
lradius 80.0865
lwrist 10.6609
lhand -11.276 6.66261
lfingers 7.12502
lthumb 14.7546 36.1175
rfemur -29.0177 10.8507 17.6822
rtibia 24.7049
rfoot -14.2814 -4.45886
rtoes -17.6142
lfemur -13.3536 -2.77009 -12.3505
ltibia 28.3252
lfoot -24.0623 -8.603
ltoes -7.15194
963
root -17.4529 17.8491 -0.726433 -390.438 85.4954 -406.168
lowerback 19.668 -1.81723 -0.938388
upperback 0.581537 -2.48253 0.434376
thorax -10.3524 -1.07878 1.70254
lowerneck 1.94559 1.38505 4.61601
upperneck -27.6552 3.58684 0.381089
head -8.89869 1.61262 -1.01717
rclavicle -4.65156e-014 2.38542e-015
rhumerus -54.2191 6.75471 -79.1037
rradius 43.009
rwrist 3.43814
rhand -8.26491 -14.6487
rfingers 7.12502
rthumb 17.6539 -43.8672
lclavicle -4.65156e-014 2.38542e-015
lhumerus -42.2059 -19.8216 77.4678
lradius 79.9061
lwrist 10.5623
lhand -11.376 6.56956
lfingers 7.12502
lthumb 14.6582 36.0314
rfemur -28.8098 10.8838 17.6896
rtibia 25.9506
rfoot -14.0165 -4.7611
rtoes -15.978
lfemur -13.6389 -2.07174 -12.3551
ltibia 30.0177
lfoot -24.085 -10.3157
ltoes -7.31007
964
root -17.3269 17.8136 -0.699767 -394.917 85.9611 -410.376
lowerback 19.8291 -1.89477 -0.476537
upperback 0.734589 -2.44568 0.679048
thorax -10.2812 -1.07516 1.69949
lowerneck 1.9832 1.30756 4.80733
upperneck -27.8366 3.36447 -0.21461
head -8.95655 1.54539 -1.23961
rclavicle -2.56432e-014 1.03368e-014
rhumerus -54.0812 6.20243 -78.5205
rradius 42.3027
rwrist 3.74022
rhand -8.39634 -14.7123
rfingers 7.12502
rthumb 17.5275 -43.9422
lclavicle -2.56432e-014 1.03368e-014
lhumerus -42.5213 -19.9384 78.05
lradius 79.5741
lwrist 10.3201
lhand -11.5445 6.57978
lfingers 7.12502
lthumb 14.4959 36.0534
rfemur -28.5726 10.9752 17.8116
rtibia 27.1842
rfoot -14.0663 -5.15219
rtoes -14.4434
lfemur -14.1092 -1.37497 -12.214
ltibia 32.0134
lfoot -23.9493 -12.0505
ltoes -7.56992
965
root -17.2014 17.7798 -0.673171 -401.345 86.3143 -416.556
lowerback 19.9677 -1.97274 0.0735967
upperback 0.895198 -2.38455 0.949535
thorax -10.192 -1.06266 1.66629
lowerneck 2.00967 1.23666 5.01058
upperneck -28.0395 3.15011 -0.826912
head -9.02107 1.48395 -1.47171
rclavicle 1.78906e-014 -9.54166e-015
rhumerus -53.8466 5.68337 -77.9744
rradius 41.5479
rwrist 4.14073
rhand -8.37557 -14.7738
rfingers 7.12502
rthumb 17.5474 -44.0019
lclavicle 1.78906e-014 -9.54166e-015
lhumerus -42.9092 -20.0272 78.6705
lradius 79.1029
lwrist 9.98896
lhand -11.7744 6.67448
lfingers 7.12502
lthumb 14.2744 36.1639
rfemur -28.3147 11.1213 18.0429
rtibia 28.3647
rfoot -14.4098 -5.64894
rtoes -13.1397
lfemur -14.764 -0.703689 -11.9298
ltibia 34.2745
lfoot -23.5998 -13.7868
ltoes -7.99025
966
root -17.0759 17.7468 -0.646601 -409.247 86.5305 -424.245
lowerback 20.0702 -2.04263 0.679546
upperback 1.05465 -2.29726 1.23631
thorax -10.0859 -1.03885 1.6101
lowerneck 2.02964 1.17298 5.21249
upperneck -28.2479 2.95071 -1.42078
head -9.08815 1.42929 -1.69964
rclavicle -6.52014e-014 2.54444e-014
rhumerus -53.5204 5.19224 -77.4637
rradius 40.7365
rwrist 4.66393
rhand -8.19798 -14.8095
rfingers 7.12502
rthumb 17.7183 -44.0222
lclavicle -6.52014e-014 2.54444e-014
lhumerus -43.3809 -20.1131 79.3279
lradius 78.5039
lwrist 9.62042
lhand -12.05 6.89504
lfingers 7.12502
lthumb 14.0089 36.403
rfemur -28.0496 11.3007 18.361
rtibia 29.4634
rfoot -14.9774 -6.2268
rtoes -12.2367
lfemur -15.5823 -0.0805404 -11.5274
ltibia 36.737
lfoot -23.0155 -15.4917
ltoes -8.60148
967
root -16.9497 17.7145 -0.620582 -417.474 86.6163 -432.297
lowerback 20.1332 -2.09804 1.29948
upperback 1.20202 -2.18781 1.52504
thorax -9.97154 -1.00398 1.54039
lowerneck 2.05923 1.11694 5.39886
upperneck -28.4467 2.77146 -1.968
head -9.15574 1.38188 -1.91152
rclavicle 2.28602e-015 -4.01545e-014
rhumerus -53.1224 4.73651 -76.9871
rradius 39.8897
rwrist 5.32395
rhand -7.83579 -14.8335
rfingers 7.12502
rthumb 18.0668 -44.0144
lclavicle 2.28602e-015 -4.01545e-014
lhumerus -43.9565 -20.2089 80.0217
lradius 77.793
lwrist 9.25266
lhand -12.3458 7.23046
lfingers 7.12502
lthumb 13.7237 36.7579
rfemur -27.7826 11.4824 18.7245
rtibia 30.4595
rfoot -15.6906 -6.8162
rtoes -11.7832
lfemur -16.5314 0.471458 -11.0563
ltibia 39.3268
lfoot -22.1973 -17.1173
ltoes -9.38891
